File Name

Solitary Man 2009 1080p BRRip H264.mp4

File Size
Format : MPEG-4
Format profile : Base Media
Codec ID : isom
File size : 3.69 GiB
Duration : 1h 29mn
Overall bit rate : 5 883 Kbps

Video
ID : 1
Format : AVC
Format/Info : Advanced Video Codec
Format profile : High@L4.1
Format settings, CABAC : Yes
Format settings, ReFrames : 3 frames
Codec ID : avc1
Codec ID/Info : Advanced Video Coding
Duration : 1h 29mn
Bit rate mode : Variable
Bit rate : 5 249 Kbps
Maximum bit rate : 17.2 Mbps
Width : 1 920 pixels
Height : 1 080 pixels
Display aspect ratio : 16:9
Frame rate mode : Constant
Frame rate : 24.000 fps
Resolution : 24 bits
Colorimetry : 4:2:0
Scan type : Progressive
Bits/(Pixel*Frame) : 0.105
Stream size : 3.29 GiB (89%)

Audio #1
ID : 2
Format : AAC
Format/Info : Advanced Audio Codec
Format version : Version 4
Format profile : LC
Format settings, SBR : No
Codec ID : 40
Duration : 1h 29mn
Bit rate mode : Variable
Bit rate : 192 Kbps
Maximum bit rate : 201 Kbps
Channel(s) : 2 channels
Channel positions : L R
Sampling rate : 48.0 KHz
Resolution : 16 bits
Stream size : 123 MiB (3%)

Audio #2
ID : 3
Format : AAC
Format/Info : Advanced Audio Codec
Format version : Version 4
Format profile : LC
Format settings, SBR : No
Codec ID : 40
Duration : 1h 29mn
Bit rate mode : Variable
Bit rate : 448 Kbps
Maximum bit rate : 465 Kbps
Channel(s) : 6 channels
Channel positions : Front: L C R, Rear: L R, LFE
Sampling rate : 48.0 KHz
Resolution : 16 bits
Stream size : 288 MiB (8%)

English SRT : -----

Language : English

 
http://www.imdb.com/title/tt1294213/

Release Date: 2 June 2010 (Sweden) 

Genre: Comedy | Drama 

Plot: A car magnate watches his personal and professional life hit the skids because of his business and romantic indiscretions.

Cast: 
Michael Douglas ... Ben Kalmen
Susan Sarandon ... Nancy Kalmen
Danny DeVito ... Jimmy Merino
Mary-Louise Parker ... Jordan Karsch
Jenna Fischer ... Susan Porter
Imogen Poots ... Allyson Karsch
Jesse Eisenberg ... Daniel Cheston
Richard Schiff ... Steve Heller
Jake Richard Siciliano ... Scotty (as Jake Siciliano)
David Costabile ... Gary Porter
Ben Shenkman ... Pete Hartofilias
Anastasia Griffith ... Carol Solomonde
Alex Kaluzhsky ... Ted Loof
Simone Levin ... Nurse (as Simona Levin Williams)
James Colby ... Sgt. John Haverford



Screenshots:
 
http://www.imagebam.com/image/d607c192475547
 
http://www.imagebam.com/image/70ba1f92475589
 
http://www.imagebam.com/image/54a36592475746
 
http://www.imagebam.com/image/a7993392475799
 
http://www.imagebam.com/image/0f88a892475875
 
http://www.imagebam.com/image/7d377792475936
 
http://www.imagebam.com/image/f7ef0092476004
 
http://www.imagebam.com/image/4cf49a92476070

ttp://www.imagebam.com/image/0b7f4892476169

